<?xml version="1.0" encoding="utf-8"?>
<!-- Generator: Adobe Illustrator 21.0.0, SVG Export Plug-In . SVG Version: 6.00 Build 0)  -->
<svg version="1.1" id="Layer_1" xmlns="http://www.w3.org/2000/svg" xmlns:xlink="http://www.w3.org/1999/xlink" x="0px" y="0px"
	 viewBox="0 0 127.5 128" style="enable-background:new 0 0 127.5 128;" xml:space="preserve">
<style type="text/css">
	.st0{fill:#FFFFFF;}
</style>
<g>
	<g>
		<polygon class="st0" points="118,45.7 85.8,13.5 72.2,0 72.2,19.2 72.2,91.4 54.8,108.8 38.5,92.6 33.5,87.6 33.5,106.8 
			45.2,118.4 54.8,128 64.4,118.4 72.2,110.5 85.8,97 85.8,77.9 85.8,32.7 108.4,55.3 96.2,67.4 96.2,86.6 118,64.9 127.5,55.3 		
			"/>
		<polygon class="st0" points="45.2,47.2 45.2,28.1 9.6,63.7 0,73.3 9.6,82.8 28.3,101.5 28.3,82.4 19.2,73.3 		"/>
	</g>
</g>
</svg>
