<?xml version="1.0" encoding="utf-8"?>
<!-- Generator: Adobe Illustrator 21.0.0, SVG Export Plug-In . SVG Version: 6.00 Build 0)  -->
<svg version="1.1" id="Layer_1" xmlns="http://www.w3.org/2000/svg" xmlns:xlink="http://www.w3.org/1999/xlink" x="0px" y="0px"
	 viewBox="0 0 255.1 256" style="enable-background:new 0 0 255.1 256;" xml:space="preserve">
<g>
	<g>
		<polygon points="235.9,91.4 171.5,27.1 144.5,0 144.5,38.3 144.5,182.8 109.6,217.7 76.9,185.1 67,175.2 67,213.5 90.4,236.8 
			109.6,256 128.7,236.8 144.5,221.1 171.5,194 171.5,155.7 171.5,65.4 216.8,110.6 192.5,134.8 192.5,173.1 235.9,129.7 
			255.1,110.6 		"/>
		<polygon points="90.4,94.3 90.4,56.2 19.2,127.4 0,146.5 19.2,165.7 56.6,203.1 56.6,164.8 38.3,146.5 		"/>
	</g>
</g>
</svg>
