<?xml version="1.0" encoding="utf-8"?>
<!-- Generator: Adobe Illustrator 21.0.0, SVG Export Plug-In . SVG Version: 6.00 Build 0)  -->
<svg version="1.1" id="Layer_1" xmlns="http://www.w3.org/2000/svg" xmlns:xlink="http://www.w3.org/1999/xlink" x="0px" y="0px"
	 viewBox="0 0 510.1 512" style="enable-background:new 0 0 510.1 512;" xml:space="preserve">
<style type="text/css">
	.st0{fill:#B40909;}
</style>
<g>
	<g>
		<polygon class="st0" points="471.8,182.8 343.1,54.1 289,0 289,76.6 289,365.6 219.1,435.4 153.9,370.3 134,350.4 134,427 
			180.8,473.7 219.1,512 257.4,473.7 289,442.2 343.1,388 343.1,311.4 343.1,130.7 433.5,221.1 384.9,269.6 384.9,346.2 
			471.8,259.5 510.1,221.1 		"/>
		<polygon class="st0" points="180.8,188.7 180.8,112.3 38.3,254.7 0,293 38.3,331.3 113.1,406.2 113.1,329.6 76.6,293 		"/>
	</g>
</g>
</svg>
