<?xml version="1.0" encoding="utf-8"?>
<!-- Generator: Adobe Illustrator 21.0.0, SVG Export Plug-In . SVG Version: 6.00 Build 0)  -->
<svg version="1.1" id="Layer_1" xmlns="http://www.w3.org/2000/svg" xmlns:xlink="http://www.w3.org/1999/xlink" x="0px" y="0px"
	 viewBox="0 0 585.7 200" style="enable-background:new 0 0 585.7 200;" xml:space="preserve">
<style type="text/css">
	.st0{fill:#FFFFFF;}
</style>
<polygon class="st0" points="166.1,71.4 132.2,37.4 115.9,21.2 94.7,0 94.7,29.9 94.7,142.8 67.4,170.2 29.9,132.6 0,132.6 
	52.5,185.1 67.4,200 82.3,185.1 94.7,172.7 115.9,151.5 115.9,121.7 115.9,51.1 132.2,67.4 151.2,86.4 132.2,105.4 132.2,135.3 
	141.8,125.5 166.1,101.3 181,86.4 "/>
<path class="st0" d="M221.9,85.3v-6.9H244v30c0,5.3-1.3,9.3-4,11.9c-2.7,2.7-6.2,4-10.4,4c-5.3,0-9.8-1.9-13.6-5.6l4.4-6.1
	c3,2.8,5.8,4.2,8.7,4.2c2,0,3.7-0.7,5.1-2c1.4-1.3,2.1-3.4,2.1-6.1V85.3H221.9z"/>
<path class="st0" d="M283.7,119.3c-3.5,3.5-7.8,5.2-13,5.2s-9.6-1.7-13-5.2c-3.5-3.5-5.2-7.7-5.2-12.7s1.7-9.2,5.2-12.7
	c3.5-3.5,7.8-5.2,13-5.2s9.6,1.7,13,5.2c3.5,3.5,5.2,7.7,5.2,12.7S287.2,115.8,283.7,119.3z M262.8,114.8c2.1,2.1,4.7,3.2,7.9,3.2
	s5.8-1.1,7.9-3.2c2.1-2.1,3.1-4.8,3.1-8.2s-1-6.1-3.1-8.2c-2.1-2.1-4.7-3.2-7.9-3.2s-5.8,1.1-7.9,3.2c-2.1,2.1-3.1,4.8-3.1,8.2
	S260.8,112.7,262.8,114.8z"/>
<path class="st0" d="M321.5,108V89.2h7.3v34.7h-7.3v-6.3c-1.2,2.1-2.8,3.8-4.9,5c-2.1,1.2-4.3,1.8-6.7,1.8c-3.9,0-7.1-1.2-9.5-3.6
	c-2.4-2.4-3.6-5.8-3.6-10.4V89.2h7.3v19c0,6.4,2.6,9.6,7.9,9.6c2.5,0,4.7-0.8,6.6-2.5C320.5,113.7,321.5,111.2,321.5,108z"/>
<path class="st0" d="M357.5,96.1c-3.6,0-6.3,1.2-8.1,3.5c-1.8,2.3-2.7,5.5-2.7,9.5v14.9h-7.3V89.2h7.3v7c1.2-2.2,2.8-4,4.8-5.3
	c2-1.4,4.2-2.1,6.4-2.2l0.1,7.4C357.8,96.1,357.6,96.1,357.5,96.1z"/>
<path class="st0" d="M372.5,105.1v18.8h-7.3V89.2h7.3v6.3c1.2-2.1,2.8-3.8,4.9-5c2.1-1.2,4.3-1.8,6.7-1.8c3.9,0,7.1,1.2,9.5,3.6
	c2.4,2.4,3.6,5.8,3.6,10.4v21.2h-7.3v-19c0-6.4-2.7-9.6-7.9-9.6c-2.5,0-4.7,0.8-6.6,2.5C373.4,99.5,372.5,101.9,372.5,105.1z"/>
<path class="st0" d="M435.4,123.9h-6.6v-4.6c-2.9,3.4-6.7,5.1-11.5,5.1c-3.6,0-6.6-1-9-3.1c-2.4-2-3.6-4.8-3.6-8.2
	c0-3.4,1.3-6,3.8-7.7c2.5-1.7,5.9-2.5,10.2-2.5h9.4v-1.3c0-4.6-2.6-6.9-7.7-6.9c-3.2,0-6.6,1.2-10,3.5l-3.3-4.6c4.2-3.3,9-5,14.3-5
	c4.1,0,7.4,1,10,3.1c2.6,2.1,3.9,5.3,3.9,9.7V123.9z M428.1,111v-2.9h-8.2c-5.3,0-7.9,1.7-7.9,5c0,1.7,0.7,3,2,3.9
	c1.3,0.9,3.1,1.3,5.4,1.3c2.3,0,4.4-0.7,6.1-2C427.2,115,428.1,113.2,428.1,111z"/>
<path class="st0" d="M452.8,123.9h-7.3V75.6h7.3V123.9z"/>
<path class="st0" d="M498.9,84.3c4.4,4,6.6,9.5,6.6,16.6c0,7.1-2.1,12.7-6.4,16.8c-4.3,4.1-10.8,6.2-19.5,6.2h-15.1V78.4h15.6
	C488.3,78.4,494.5,80.4,498.9,84.3z M497.7,101.1c0-10.4-6-15.6-17.9-15.6h-7.7v31.2h8.5c5.5,0,9.7-1.3,12.7-3.9
	C496.3,110.1,497.7,106.2,497.7,101.1z"/>
<path class="st0" d="M546.6,109.8h-27.2c0.2,2.5,1.3,4.6,3.5,6.1c2.1,1.5,4.6,2.3,7.3,2.3c4.3,0,7.6-1.4,9.9-4.1l4.2,4.6
	c-3.7,3.9-8.6,5.8-14.6,5.8c-4.9,0-9-1.6-12.4-4.9c-3.4-3.2-5.1-7.6-5.1-13c0-5.4,1.7-9.8,5.2-13c3.5-3.2,7.6-4.8,12.3-4.8
	c4.7,0,8.7,1.4,12,4.3c3.3,2.8,5,6.8,5,11.8V109.8z M519.4,104h19.9c0-2.9-0.9-5.1-2.7-6.7c-1.8-1.6-4.1-2.3-6.7-2.3
	c-2.7,0-5.1,0.8-7.2,2.4C520.5,99.1,519.4,101.3,519.4,104z"/>
<path class="st0" d="M563.4,123.9l-13.9-34.7h7.6l10.6,26.2l10.6-26.2h7.6l-13.9,34.7H563.4z"/>
</svg>
