<?xml version="1.0" encoding="utf-8"?>
<!-- Generator: Adobe Illustrator 21.0.0, SVG Export Plug-In . SVG Version: 6.00 Build 0)  -->
<svg version="1.1" id="Layer_1" xmlns="http://www.w3.org/2000/svg" xmlns:xlink="http://www.w3.org/1999/xlink" x="0px" y="0px"
	 viewBox="0 0 249.4 250" style="enable-background:new 0 0 249.4 250;" xml:space="preserve">
<g>
	<g>
		<polygon points="202.5,65.9 156.1,19.5 136.6,0 136.6,27.6 136.6,131.8 111.4,157 87.9,133.5 80.7,126.4 80.7,154 97.6,170.8 
			111.4,184.6 125.2,170.8 136.6,159.5 156.1,139.9 156.1,112.3 156.1,47.1 188.7,79.8 171.2,97.2 171.2,124.8 202.5,93.6 
			216.3,79.8 		"/>
		<polygon points="97.6,68 97.6,40.5 46.2,91.9 32.4,105.7 46.2,119.5 73.2,146.5 73.2,118.8 60,105.7 		"/>
	</g>
</g>
<path d="M3.9,223.6v-4.7h14.9v20.3c0,3.6-0.9,6.3-2.7,8c-1.8,1.8-4.2,2.7-7,2.7c-3.6,0-6.6-1.3-9.1-3.8l2.9-4.1
	c2,1.9,3.9,2.9,5.9,2.9c1.3,0,2.5-0.5,3.4-1.4c1-0.9,1.4-2.3,1.4-4.1v-15.9H3.9z"/>
<path d="M45.6,246.5c-2.3,2.3-5.3,3.5-8.8,3.5s-6.4-1.2-8.8-3.5c-2.3-2.3-3.5-5.2-3.5-8.6c0-3.4,1.2-6.2,3.5-8.6
	c2.3-2.3,5.3-3.5,8.8-3.5s6.4,1.2,8.8,3.5c2.3,2.3,3.5,5.2,3.5,8.6C49.2,241.3,48,244.2,45.6,246.5z M31.5,243.5
	c1.4,1.4,3.2,2.1,5.3,2.1s3.9-0.7,5.3-2.1c1.4-1.4,2.1-3.3,2.1-5.5c0-2.3-0.7-4.1-2.1-5.5c-1.4-1.4-3.2-2.1-5.3-2.1
	s-3.9,0.7-5.3,2.1c-1.4,1.4-2.1,3.3-2.1,5.5C29.5,240.2,30.2,242,31.5,243.5z"/>
<path d="M71.1,238.9v-12.7H76v23.4h-4.9v-4.3c-0.8,1.4-1.9,2.6-3.3,3.4c-1.4,0.8-2.9,1.2-4.5,1.2c-2.6,0-4.8-0.8-6.4-2.4
	c-1.6-1.6-2.4-3.9-2.4-7v-14.3h4.9v12.8c0,4.3,1.8,6.5,5.4,6.5c1.7,0,3.2-0.6,4.4-1.7C70.5,242.7,71.1,241.1,71.1,238.9z"/>
<path d="M95.4,230.9c-2.4,0-4.3,0.8-5.5,2.4c-1.2,1.6-1.8,3.7-1.8,6.4v10h-4.9v-23.4h4.9v4.7c0.8-1.5,1.9-2.7,3.2-3.6
	c1.4-0.9,2.8-1.4,4.3-1.5l0,5C95.6,230.9,95.5,230.9,95.4,230.9z"/>
<path d="M105.5,237v12.7h-4.9v-23.4h4.9v4.3c0.8-1.4,1.9-2.6,3.3-3.4c1.4-0.8,2.9-1.2,4.5-1.2c2.6,0,4.8,0.8,6.4,2.4
	c1.6,1.6,2.4,3.9,2.4,7v14.3h-4.9v-12.8c0-4.3-1.8-6.5-5.4-6.5c-1.7,0-3.2,0.6-4.4,1.7C106.2,233.2,105.5,234.8,105.5,237z"/>
<path d="M148,249.6h-4.5v-3.1c-1.9,2.3-4.5,3.5-7.8,3.5c-2.4,0-4.4-0.7-6-2.1c-1.6-1.4-2.4-3.2-2.4-5.5c0-2.3,0.8-4,2.6-5.2
	c1.7-1.1,4-1.7,6.9-1.7h6.4v-0.9c0-3.1-1.7-4.7-5.2-4.7c-2.2,0-4.4,0.8-6.8,2.4l-2.2-3.1c2.8-2.3,6.1-3.4,9.7-3.4
	c2.8,0,5,0.7,6.7,2.1c1.7,1.4,2.6,3.6,2.6,6.6V249.6z M143,240.9v-2h-5.5c-3.5,0-5.3,1.1-5.3,3.3c0,1.1,0.4,2,1.3,2.6
	c0.9,0.6,2.1,0.9,3.7,0.9c1.6,0,2.9-0.4,4.1-1.3C142.5,243.6,143,242.4,143,240.9z"/>
<path d="M159.8,249.6h-4.9V217h4.9V249.6z"/>
<path d="M190.8,222.9c3,2.7,4.4,6.4,4.4,11.2c0,4.8-1.4,8.6-4.3,11.3c-2.9,2.8-7.3,4.2-13.2,4.2h-10.2v-30.7h10.6
	C183.6,218.9,187.9,220.3,190.8,222.9z M190,234.3c0-7-4-10.6-12.1-10.6h-5.2v21.1h5.8c3.7,0,6.6-0.9,8.6-2.7
	C189.1,240.3,190,237.7,190,234.3z"/>
<path d="M223,240.1h-18.3c0.1,1.7,0.9,3.1,2.3,4.1c1.4,1,3.1,1.6,4.9,1.6c2.9,0,5.2-0.9,6.7-2.8l2.8,3.1c-2.5,2.6-5.8,3.9-9.9,3.9
	c-3.3,0-6.1-1.1-8.4-3.3c-2.3-2.2-3.4-5.1-3.4-8.8c0-3.7,1.2-6.6,3.5-8.8c2.3-2.2,5.1-3.3,8.3-3.3c3.2,0,5.9,1,8.1,2.9
	c2.2,1.9,3.3,4.6,3.3,7.9V240.1z M204.7,236.2h13.4c0-2-0.6-3.5-1.8-4.5c-1.2-1.1-2.7-1.6-4.6-1.6c-1.8,0-3.4,0.5-4.9,1.6
	C205.4,232.9,204.7,234.4,204.7,236.2z"/>
<path d="M234.4,249.6l-9.4-23.4h5.1l7.1,17.7l7.1-17.7h5.1l-9.4,23.4H234.4z"/>
</svg>
