<?xml version="1.0" encoding="utf-8"?>
<!-- Generator: Adobe Illustrator 21.0.0, SVG Export Plug-In . SVG Version: 6.00 Build 0)  -->
<svg version="1.1" id="Layer_1" xmlns="http://www.w3.org/2000/svg" xmlns:xlink="http://www.w3.org/1999/xlink" x="0px" y="0px"
	 viewBox="0 0 234 250" style="enable-background:new 0 0 234 250;" xml:space="preserve">
<style type="text/css">
	.st0{fill:#B40909;}
</style>
<polygon class="st0" points="187.5,66.6 155.8,34.9 140.7,19.7 120.9,0 120.9,27.9 120.9,133.1 95.5,158.6 60.5,123.6 32.7,123.6 
	81.6,172.5 95.5,186.4 109.4,172.5 120.9,160.9 140.7,141.2 140.7,113.4 140.7,47.6 155.8,62.8 173.6,80.5 155.8,98.2 155.8,126 
	164.8,117 187.5,94.4 201.4,80.5 "/>
<path d="M3.7,225.2v-4.4h14v19c0,3.4-0.9,5.9-2.6,7.6c-1.7,1.7-3.9,2.5-6.6,2.5c-3.4,0-6.2-1.2-8.6-3.5l2.8-3.8
	c1.9,1.8,3.7,2.7,5.5,2.7c1.3,0,2.3-0.4,3.2-1.3s1.3-2.1,1.3-3.8v-14.9H3.7z"/>
<path d="M42.8,246.7c-2.2,2.2-4.9,3.3-8.3,3.3s-6.1-1.1-8.3-3.3c-2.2-2.2-3.3-4.9-3.3-8c0-3.2,1.1-5.8,3.3-8c2.2-2.2,5-3.3,8.3-3.3
	s6.1,1.1,8.3,3.3c2.2,2.2,3.3,4.9,3.3,8C46.1,241.9,45,244.5,42.8,246.7z M29.6,243.9c1.3,1.3,3,2,5,2c2,0,3.7-0.7,5-2
	c1.3-1.3,2-3.1,2-5.2s-0.7-3.8-2-5.2c-1.3-1.3-3-2-5-2c-2,0-3.7,0.7-5,2c-1.3,1.3-2,3.1-2,5.2S28.3,242.5,29.6,243.9z"/>
<path d="M66.7,239.6v-11.9h4.6v22h-4.6v-4c-0.7,1.3-1.8,2.4-3.1,3.2c-1.3,0.8-2.7,1.2-4.2,1.2c-2.5,0-4.5-0.8-6-2.3
	c-1.5-1.5-2.3-3.7-2.3-6.6v-13.5h4.6v12c0,4,1.7,6.1,5,6.1c1.6,0,3-0.5,4.2-1.6C66.1,243.2,66.7,241.6,66.7,239.6z"/>
<path d="M89.5,232c-2.3,0-4,0.7-5.2,2.2c-1.2,1.5-1.7,3.5-1.7,6v9.4H78v-22h4.6v4.4c0.7-1.4,1.8-2.5,3-3.4c1.3-0.9,2.6-1.3,4.1-1.4
	l0,4.7C89.7,232,89.6,232,89.5,232z"/>
<path d="M99,237.8v11.9h-4.6v-22H99v4c0.7-1.3,1.8-2.4,3.1-3.2c1.3-0.8,2.7-1.2,4.2-1.2c2.5,0,4.5,0.8,6,2.3
	c1.5,1.5,2.3,3.7,2.3,6.6v13.5H110v-12c0-4-1.7-6.1-5-6.1c-1.6,0-3,0.5-4.2,1.6C99.6,234.2,99,235.7,99,237.8z"/>
<path d="M138.9,249.7h-4.2v-2.9c-1.8,2.2-4.3,3.3-7.3,3.3c-2.3,0-4.2-0.6-5.7-1.9c-1.5-1.3-2.2-3-2.2-5.2c0-2.2,0.8-3.8,2.4-4.8
	c1.6-1.1,3.8-1.6,6.5-1.6h6v-0.8c0-2.9-1.6-4.4-4.9-4.4c-2,0-4.2,0.7-6.4,2.2l-2.1-2.9c2.7-2.1,5.7-3.2,9.1-3.2c2.6,0,4.7,0.7,6.3,2
	c1.6,1.3,2.5,3.4,2.5,6.2V249.7z M134.2,241.5v-1.9H129c-3.3,0-5,1-5,3.1c0,1.1,0.4,1.9,1.2,2.5c0.8,0.6,2,0.8,3.4,0.8
	c1.5,0,2.8-0.4,3.9-1.2C133.7,244,134.2,242.9,134.2,241.5z"/>
<path d="M149.9,249.7h-4.6v-30.6h4.6V249.7z"/>
<path class="st0" d="M179.1,224.6c2.8,2.5,4.2,6,4.2,10.5c0,4.5-1.3,8-4,10.6c-2.7,2.6-6.8,3.9-12.4,3.9h-9.6v-28.8h9.9
	C172.3,220.8,176.3,222.1,179.1,224.6z M178.3,235.2c0-6.6-3.8-9.9-11.3-9.9h-4.9v19.8h5.4c3.5,0,6.2-0.8,8-2.5
	C177.4,240.9,178.3,238.5,178.3,235.2z"/>
<path class="st0" d="M209.3,240.7h-17.2c0.1,1.6,0.8,2.9,2.2,3.9c1.3,1,2.9,1.5,4.6,1.5c2.8,0,4.8-0.9,6.3-2.6l2.6,2.9
	c-2.4,2.4-5.4,3.7-9.2,3.7c-3.1,0-5.7-1-7.9-3.1c-2.2-2.1-3.2-4.8-3.2-8.3c0-3.5,1.1-6.2,3.3-8.2c2.2-2,4.8-3.1,7.8-3.1
	c3,0,5.5,0.9,7.6,2.7c2.1,1.8,3.1,4.3,3.1,7.4V240.7z M192.1,237.1h12.6c0-1.8-0.6-3.3-1.7-4.2c-1.2-1-2.6-1.5-4.3-1.5
	s-3.2,0.5-4.6,1.5C192.8,233.9,192.1,235.3,192.1,237.1z"/>
<path class="st0" d="M219.9,249.7l-8.8-22h4.8l6.7,16.6l6.7-16.6h4.8l-8.8,22H219.9z"/>
</svg>
