<?xml version="1.0" encoding="utf-8"?>
<!-- Generator: Adobe Illustrator 21.0.0, SVG Export Plug-In . SVG Version: 6.00 Build 0)  -->
<svg version="1.1" id="Layer_1" xmlns="http://www.w3.org/2000/svg" xmlns:xlink="http://www.w3.org/1999/xlink" x="0px" y="0px"
	 viewBox="0 0 378.1 50" style="enable-background:new 0 0 378.1 50;" xml:space="preserve">
<style type="text/css">
	.st0{fill:#B40909;}
</style>
<path d="M5.9,9.9V2.9h22.7v30.7c0,5.4-1.4,9.5-4.1,12.2c-2.8,2.7-6.3,4.1-10.6,4.1c-5.4,0-10-1.9-13.9-5.7l4.5-6.2
	c3,2.9,6,4.3,8.9,4.3c2,0,3.8-0.7,5.2-2.1c1.4-1.4,2.2-3.4,2.2-6.2V9.9H5.9z"/>
<path d="M69.2,44.7c-3.6,3.5-8,5.3-13.3,5.3s-9.8-1.8-13.3-5.3c-3.6-3.5-5.3-7.9-5.3-13s1.8-9.4,5.3-13c3.6-3.5,8-5.3,13.3-5.3
	s9.8,1.8,13.3,5.3c3.6,3.5,5.3,7.9,5.3,13S72.8,41.2,69.2,44.7z M47.8,40.1c2.1,2.2,4.8,3.2,8,3.2s5.9-1.1,8-3.2
	c2.1-2.2,3.2-4.9,3.2-8.4s-1.1-6.2-3.2-8.4c-2.1-2.2-4.8-3.2-8-3.2s-5.9,1.1-8,3.2c-2.1,2.2-3.2,4.9-3.2,8.4S45.7,37.9,47.8,40.1z"
	/>
<path d="M107.8,33.2V14h7.5v35.5h-7.5V43c-1.2,2.2-2.9,3.9-5,5.1c-2.1,1.2-4.4,1.9-6.8,1.9c-4,0-7.2-1.2-9.7-3.7
	c-2.5-2.4-3.7-6-3.7-10.6V14h7.5v19.5c0,6.5,2.7,9.8,8.1,9.8c2.6,0,4.8-0.9,6.7-2.6C106.8,39,107.8,36.5,107.8,33.2z"/>
<path d="M144.7,21c-3.7,0-6.5,1.2-8.3,3.6c-1.9,2.4-2.8,5.6-2.8,9.7v15.2h-7.5V14h7.5v7.1c1.2-2.2,2.8-4,4.9-5.5
	c2.1-1.4,4.3-2.2,6.6-2.2l0.1,7.5C144.9,21,144.8,21,144.7,21z"/>
<path d="M160,30.3v19.2h-7.5V14h7.5v6.5c1.2-2.2,2.9-3.9,5-5.1c2.1-1.2,4.4-1.9,6.8-1.9c4,0,7.2,1.2,9.7,3.7c2.5,2.4,3.7,6,3.7,10.6
	v21.7h-7.5V30c0-6.5-2.7-9.8-8.1-9.8c-2.6,0-4.8,0.9-6.7,2.6C161,24.5,160,27,160,30.3z"/>
<path d="M224.3,49.5h-6.8v-4.7c-2.9,3.5-6.9,5.3-11.8,5.3c-3.7,0-6.7-1-9.2-3.1c-2.4-2.1-3.6-4.9-3.6-8.4c0-3.5,1.3-6.1,3.9-7.8
	c2.6-1.7,6.1-2.6,10.5-2.6h9.7v-1.3c0-4.7-2.6-7.1-7.9-7.1c-3.3,0-6.7,1.2-10.3,3.6l-3.3-4.7c4.3-3.4,9.2-5.1,14.7-5.1
	c4.2,0,7.6,1.1,10.2,3.2c2.6,2.1,4,5.4,4,10V49.5z M216.9,36.3v-3h-8.4c-5.4,0-8.1,1.7-8.1,5.1c0,1.7,0.7,3.1,2,4
	c1.3,0.9,3.2,1.4,5.6,1.4c2.4,0,4.5-0.7,6.2-2C216,40.3,216.9,38.5,216.9,36.3z"/>
<path d="M242.2,49.5h-7.5V0h7.5V49.5z"/>
<path class="st0" d="M289.3,9c4.5,4.1,6.7,9.7,6.7,17c0,7.2-2.2,13-6.5,17.2c-4.4,4.2-11,6.3-20,6.3h-15.5V2.9h16
	C278.4,2.9,284.8,4.9,289.3,9z M288.1,26.1c0-10.7-6.1-16-18.3-16h-7.9v31.9h8.7c5.6,0,10-1.3,13-4
	C286.6,35.3,288.1,31.4,288.1,26.1z"/>
<path class="st0" d="M338.1,35h-27.8c0.2,2.6,1.4,4.7,3.5,6.2s4.7,2.4,7.5,2.4c4.4,0,7.8-1.4,10.1-4.2l4.3,4.7
	c-3.8,4-8.8,5.9-14.9,5.9c-5,0-9.2-1.7-12.7-5c-3.5-3.3-5.2-7.8-5.2-13.3c0-5.6,1.8-10,5.3-13.3c3.6-3.3,7.7-4.9,12.6-4.9
	c4.8,0,8.9,1.5,12.3,4.4c3.4,2.9,5.1,6.9,5.1,12V35z M310.3,29.1h20.3c0-3-0.9-5.3-2.8-6.9c-1.9-1.6-4.2-2.4-6.9-2.4
	s-5.2,0.8-7.4,2.5C311.4,24,310.3,26.3,310.3,29.1z"/>
<path class="st0" d="M355.3,49.5L341.1,14h7.7l10.8,26.8L370.4,14h7.7l-14.3,35.5H355.3z"/>
</svg>
