<?xml version="1.0" encoding="utf-8"?>
<!-- Generator: Adobe Illustrator 21.0.0, SVG Export Plug-In . SVG Version: 6.00 Build 0)  -->
<svg version="1.1" id="Layer_1" xmlns="http://www.w3.org/2000/svg" xmlns:xlink="http://www.w3.org/1999/xlink" x="0px" y="0px"
	 viewBox="0 0 756.3 100" style="enable-background:new 0 0 756.3 100;" xml:space="preserve">
<style type="text/css">
	.st0{fill:#B40909;}
</style>
<path d="M11.9,19.9V5.7h45.3v61.5c0,10.8-2.8,19-8.3,24.4c-5.5,5.4-12.6,8.1-21.2,8.1C16.9,99.7,7.6,95.9,0,88.3l8.9-12.4
	c6,5.8,12,8.7,17.7,8.7c4.1,0,7.6-1.4,10.5-4.1c2.9-2.8,4.3-6.9,4.3-12.4V19.9H11.9z"/>
<path d="M138.4,89.4c-7.1,7.1-16,10.6-26.7,10.6s-19.6-3.5-26.7-10.6C78,82.3,74.4,73.7,74.4,63.5S78,44.6,85.1,37.5
	c7.1-7.1,16-10.6,26.7-10.6s19.6,3.5,26.7,10.6c7.1,7.1,10.7,15.7,10.7,25.9S145.5,82.3,138.4,89.4z M95.7,80.2
	c4.2,4.3,9.6,6.5,16.1,6.5s11.8-2.2,16.1-6.5c4.2-4.3,6.3-9.9,6.3-16.7S132,51,127.8,46.7c-4.2-4.3-9.6-6.5-16.1-6.5
	s-11.8,2.2-16.1,6.5c-4.2,4.3-6.3,9.9-6.3,16.7S91.4,75.9,95.7,80.2z"/>
<path d="M215.6,66.4V28h14.9v70.9h-14.9V86c-2.4,4.4-5.7,7.8-9.9,10.3c-4.2,2.5-8.8,3.7-13.7,3.7c-8,0-14.5-2.4-19.4-7.3
	c-4.9-4.9-7.4-12-7.4-21.2V28h14.9v38.9c0,13.1,5.4,19.6,16.3,19.6c5.2,0,9.6-1.7,13.5-5.1C213.7,78,215.6,73,215.6,66.4z"/>
<path d="M289.3,42c-7.4,0-12.9,2.4-16.7,7.2c-3.7,4.8-5.6,11.2-5.6,19.3v30.4h-14.9V28h14.9v14.3c2.4-4.4,5.7-8.1,9.8-10.9
	c4.1-2.8,8.5-4.3,13.1-4.4l0.1,15.1C289.9,42,289.6,42,289.3,42z"/>
<path d="M320,60.5v38.4h-14.9V28H320v12.9c2.4-4.4,5.7-7.8,9.9-10.3c4.2-2.5,8.8-3.7,13.7-3.7c8,0,14.5,2.4,19.4,7.3
	c4.9,4.9,7.4,12,7.4,21.2v43.5h-14.9V60c0-13.1-5.4-19.6-16.3-19.6c-5.2,0-9.6,1.7-13.5,5.1C321.9,49,320,54,320,60.5z"/>
<path d="M448.7,98.9h-13.6v-9.5c-5.9,7-13.7,10.5-23.6,10.5c-7.4,0-13.5-2.1-18.3-6.3c-4.9-4.2-7.3-9.8-7.3-16.7
	c0-7,2.6-12.2,7.7-15.7c5.2-3.5,12.1-5.2,20.9-5.2h19.3v-2.7c0-9.4-5.2-14.1-15.7-14.1c-6.6,0-13.4,2.4-20.5,7.2l-6.7-9.3
	c8.6-6.8,18.4-10.3,29.3-10.3c8.4,0,15.2,2.1,20.5,6.3c5.3,4.2,7.9,10.9,7.9,19.9V98.9z M433.7,72.5v-6h-16.8
	c-10.8,0-16.1,3.4-16.1,10.1c0,3.5,1.3,6.1,4,7.9c2.7,1.8,6.4,2.7,11.1,2.7c4.8,0,8.9-1.3,12.5-4C431.9,80.7,433.7,77.1,433.7,72.5z
	"/>
<path d="M484.4,98.9h-14.9V0h14.9V98.9z"/>
<path class="st0" d="M578.7,17.9c9,8.1,13.5,19.4,13.5,33.9c0,14.5-4.4,26-13.1,34.4c-8.7,8.4-22,12.7-40,12.7h-30.9V5.7h32
	C556.8,5.7,569.7,9.8,578.7,17.9z M576.3,52.3c0-21.3-12.2-32-36.7-32h-15.7v63.9h17.5c11.3,0,19.9-2.7,25.9-8.1
	C573.3,70.7,576.3,62.8,576.3,52.3z"/>
<path class="st0" d="M676.3,70h-55.6c0.3,5.2,2.7,9.3,7.1,12.5s9.3,4.7,14.9,4.7c8.9,0,15.6-2.8,20.3-8.4l8.5,9.3
	c-7.6,7.9-17.6,11.9-29.9,11.9c-10,0-18.4-3.3-25.4-9.9c-7-6.6-10.5-15.5-10.5-26.7c0-11.1,3.5-20,10.7-26.6
	c7.1-6.6,15.5-9.9,25.1-9.9c9.6,0,17.8,2.9,24.6,8.7c6.7,5.8,10.1,13.8,10.1,24.1V70z M620.7,58.3h40.7c0-6-1.9-10.5-5.6-13.7
	c-3.7-3.2-8.3-4.8-13.8-4.8s-10.4,1.7-14.7,5C622.8,48.1,620.7,52.6,620.7,58.3z"/>
<path class="st0" d="M710.7,98.9L682.1,28h15.5l21.6,53.6L740.8,28h15.5l-28.5,70.9H710.7z"/>
</svg>
